<?xml version="1.0" encoding="utf-8"?>
<!-- Generator: Adobe Illustrator 19.0.0, SVG Export Plug-In . SVG Version: 6.00 Build 0)  -->
<svg version="1.1" id="Layer_1" xmlns="http://www.w3.org/2000/svg" xmlns:xlink="http://www.w3.org/1999/xlink" x="0px" y="0px"
	 viewBox="0 0 34 34" style="enable-background:new 0 0 34 34;" xml:space="preserve">
<style type="text/css">
	.st0{fill:none;stroke:#F38B00;stroke-width:3;stroke-linecap:round;stroke-linejoin:round;stroke-miterlimit:10;}
	.st1{fill:#F38B00;}
</style>
<g id="XMLID_3729_">
	<polyline id="XMLID_3791_" class="st0" points="21.8,19.2 8.1,19.2 5.3,9.6 	"/>
	<polyline id="XMLID_3790_" class="st0" points="21.8,19.2 24.8,5.4 30.7,5.4 	"/>
	<line id="XMLID_3789_" class="st0" x1="5.3" y1="9.6" x2="19.5" y2="9.6"/>
	<g id="XMLID_3786_">
		<g id="XMLID_3788_">
			<path id="XMLID_69_" class="st1" d="M8.8,25.5c0.9,0,1.6,0.7,1.6,1.6c0,0.9-0.7,1.6-1.6,1.6c-0.9,0-1.6-0.7-1.6-1.6
				C7.2,26.2,7.9,25.5,8.8,25.5 M8.8,22.5c-2.5,0-4.6,2-4.6,4.6c0,2.5,2,4.6,4.6,4.6c2.5,0,4.6-2,4.6-4.6
				C13.3,24.5,11.3,22.5,8.8,22.5L8.8,22.5z"/>
		</g>
		<g id="XMLID_3787_">
			<path id="XMLID_66_" class="st1" d="M21.5,25.5c0.9,0,1.6,0.7,1.6,1.6c0,0.9-0.7,1.6-1.6,1.6c-0.9,0-1.6-0.7-1.6-1.6
				C19.9,26.2,20.6,25.5,21.5,25.5 M21.5,22.5c-2.5,0-4.6,2-4.6,4.6c0,2.5,2,4.6,4.6,4.6c2.5,0,4.6-2,4.6-4.6
				C26,24.5,24,22.5,21.5,22.5L21.5,22.5z"/>
		</g>
	</g>
</g>
</svg>
