<?xml version="1.0" encoding="utf-8"?>
<!-- Generator: Adobe Illustrator 19.0.0, SVG Export Plug-In . SVG Version: 6.00 Build 0)  -->
<svg version="1.1" id="Layer_1" xmlns="http://www.w3.org/2000/svg" xmlns:xlink="http://www.w3.org/1999/xlink" x="0px" y="0px"
	 viewBox="0 0 40 40" style="enable-background:new 0 0 40 40;" xml:space="preserve">
<style type="text/css">
	.st0{fill:none;stroke:#FFD100;stroke-width:3;stroke-linecap:round;stroke-linejoin:round;stroke-miterlimit:10;}
</style>
<g>
	<g id="XMLID_597_">
		<path id="XMLID_598_" class="st0" d="M8.2,25.3c2.9,0,2.9,4,5.9,4c2.9,0,2.9-4,5.9-4c2.9,0,2.9,4,5.9,4s2.9-4,5.9-4"/>
		<path id="XMLID_27_" class="st0" d="M8.2,10.6c2.9,0,2.9,4,5.9,4c2.9,0,2.9-4,5.9-4c2.9,0,2.9,4,5.9,4s2.9-4,5.9-4"/>
		<path id="XMLID_603_" class="st0" d="M8.2,18.1c2.9,0,2.9,4,5.9,4c2.9,0,2.9-4,5.9-4c2.9,0,2.9,4,5.9,4s2.9-4,5.9-4"/>
	</g>
</g>
</svg>
