<svg xmlns="http://www.w3.org/2000/svg" xmlns:xlink="http://www.w3.org/1999/xlink" width="49.718" height="50" viewBox="0 0 49.718 50">
  <defs>
    <style>
      .cls-1 {
        fill: #fff;
        filter: url(#filter);
      }

      .cls-2 {
        fill-rule: evenodd;
        filter: url(#filter-2);
      }
    </style>
    <filter id="filter" x="0" y="0" width="49.718" height="50" filterUnits="userSpaceOnUse">
      <feFlood result="flood" flood-color="#c6c6c5"/>
      <feComposite result="composite" operator="in" in2="SourceGraphic"/>
      <feBlend result="blend" in2="SourceGraphic"/>
    </filter>
    <filter id="filter-2" x="220.406" y="631.188" width="24.094" height="13.656" filterUnits="userSpaceOnUse">
      <feFlood result="flood" flood-color="#232323"/>
      <feComposite result="composite" operator="in" in2="SourceGraphic"/>
      <feBlend result="blend" in2="SourceGraphic"/>
    </filter>
  </defs>
  <circle id="Ellipse_1_copy_2" data-name="Ellipse 1 copy 2" class="cls-1" cx="24.859" cy="25" r="24.859"/>
  <path class="cls-2" d="M244.381,643.52c-0.029-.063-0.057-0.113-0.082-0.156a12.443,12.443,0,0,0-2.4-2.755l-0.025-.025-0.013-.011-0.013-.014H241.84q-0.8-.76-1.016-1.022a0.953,0.953,0,0,1-.176-1.009,9.36,9.36,0,0,1,1.129-1.635c0.343-.441.615-0.793,0.815-1.06q2.172-2.866,1.882-3.665l-0.074-.124a0.742,0.742,0,0,0-.389-0.206,1.966,1.966,0,0,0-.8-0.031l-3.614.024a0.476,0.476,0,0,0-.25.007l-0.164.037-0.062.033-0.05.037a0.547,0.547,0,0,0-.139.129,0.93,0.93,0,0,0-.124.219,20.4,20.4,0,0,1-1.343,2.806q-0.465.772-.853,1.34a6.606,6.606,0,0,1-.652.835,4.56,4.56,0,0,1-.477.43,0.457,0.457,0,0,1-.326.137c-0.076-.016-0.147-0.033-0.214-0.05a0.814,0.814,0,0,1-.282-0.305,1.373,1.373,0,0,1-.144-0.487c-0.025-.2-0.04-0.362-0.045-0.5s0-.343.007-0.6,0.013-.432.013-0.523c0-.317.006-0.659,0.018-1.029s0.023-.663.032-0.88,0.012-.444.012-0.685a2.872,2.872,0,0,0-.044-0.567,1.868,1.868,0,0,0-.132-0.4,0.674,0.674,0,0,0-.257-0.3,1.431,1.431,0,0,0-.419-0.167,8.43,8.43,0,0,0-1.7-.163,8.269,8.269,0,0,0-3,.3,1.657,1.657,0,0,0-.477.374q-0.225.273-.063,0.3a1.543,1.543,0,0,1,1.067.535l0.075,0.152a2.3,2.3,0,0,1,.176.572,5.716,5.716,0,0,1,.112.909,9.592,9.592,0,0,1,0,1.559q-0.061.649-.119,1.01a2.01,2.01,0,0,1-.169.587,2.227,2.227,0,0,1-.151.273,0.227,0.227,0,0,1-.062.063,0.935,0.935,0,0,1-.34.062,0.8,0.8,0,0,1-.426-0.174,3.061,3.061,0,0,1-.52-0.48,6.473,6.473,0,0,1-.609-0.854c-0.226-.367-0.459-0.8-0.7-1.3l-0.2-.361q-0.189-.349-0.514-1.018t-0.577-1.29a0.829,0.829,0,0,0-.3-0.4l-0.062-.036a0.931,0.931,0,0,0-.2-0.107,1.4,1.4,0,0,0-.288-0.082l-3.438.026a0.876,0.876,0,0,0-.715.238l-0.051.074a0.4,0.4,0,0,0-.037.2,0.973,0.973,0,0,0,.075.338q0.753,1.757,1.638,3.39t1.536,2.631q0.653,1,1.33,1.883t0.9,1.134c0.146,0.168.261,0.292,0.345,0.374l0.313,0.3a7.418,7.418,0,0,0,.886.717,15.048,15.048,0,0,0,1.291.823,7.108,7.108,0,0,0,1.651.661,5.717,5.717,0,0,0,1.831.2h1.443a1,1,0,0,0,.665-0.274l0.049-.062a0.789,0.789,0,0,0,.095-0.231,1.265,1.265,0,0,0,.044-0.342,4.156,4.156,0,0,1,.081-0.967,2.521,2.521,0,0,1,.214-0.648,1.565,1.565,0,0,1,.27-0.367,1.118,1.118,0,0,1,.213-0.181,0.944,0.944,0,0,1,.1-0.044,0.8,0.8,0,0,1,.709.193,4.251,4.251,0,0,1,.766.724q0.357,0.431.858,0.966a5.907,5.907,0,0,0,.878.8l0.251,0.151a2.963,2.963,0,0,0,.653.273,1.388,1.388,0,0,0,.7.063l3.213-.05a1.474,1.474,0,0,0,.74-0.155,0.623,0.623,0,0,0,.313-0.343,0.971,0.971,0,0,0,.007-0.425,1.61,1.61,0,0,0-.088-0.33h0Zm0,0" transform="translate(-208.344 -611.5)"/>
</svg>
