<svg xmlns="http://www.w3.org/2000/svg" xmlns:xlink="http://www.w3.org/1999/xlink" width="49.687" height="50" viewBox="0 0 49.687 50">
  <defs>
    <style>
      .cls-1 {
        fill: #fff;
        filter: url(#filter);
      }

      .cls-2 {
        fill: #838d8f;
        fill-rule: evenodd;
        filter: url(#filter-2);
      }
    </style>
    <filter id="filter" x="0" y="0" width="49.687" height="50" filterUnits="userSpaceOnUse">
      <feFlood result="flood" flood-color="#c6c6c5"/>
      <feComposite result="composite" operator="in" in2="SourceGraphic"/>
      <feBlend result="blend" in2="SourceGraphic"/>
    </filter>
    <filter id="filter-2" x="131.531" y="628.188" width="24.063" height="16.656" filterUnits="userSpaceOnUse">
      <feFlood result="flood" flood-color="#232323"/>
      <feComposite result="composite" operator="in" in2="SourceGraphic"/>
      <feBlend result="blend" in2="SourceGraphic"/>
    </filter>
  </defs>
  <circle id="Ellipse_1_copy" data-name="Ellipse 1 copy" class="cls-1" cx="24.844" cy="25" r="24.844"/>
  <path id="Twitter_Icon" data-name="Twitter Icon" class="cls-2" d="M150.788,630.928a0.257,0.257,0,0,1-.046-0.038,4.379,4.379,0,0,0-3.175-1.132l-0.037-.081a0.026,0.026,0,0,1,.022-0.008,3.848,3.848,0,0,0,1.952-.752,0.252,0.252,0,0,0-.256-0.366,6.565,6.565,0,0,0-1.523.351c0.578-.351.8-0.6,0.675-0.724a3.061,3.061,0,0,0-1.831.836,0.923,0.923,0,0,0,.27-0.634,5.117,5.117,0,0,0-.81.649,12,12,0,0,0-1.179,1.423l-0.015.037a12.373,12.373,0,0,0-1.637,3.591l-0.119.09-0.023.02a6.109,6.109,0,0,0-1.689-1.387,20.331,20.331,0,0,0-2.778-1.39,24.229,24.229,0,0,0-3.535-1.4,3.324,3.324,0,0,0,1.944,3v0.022a4.339,4.339,0,0,0-1.328.187c0.082,1.17.96,1.974,2.627,2.421l-0.008.021a1.973,1.973,0,0,0-1.614.627,2.924,2.924,0,0,0,2.921,1.46,1.961,1.961,0,0,0-.638.448,0.889,0.889,0,0,0-.256.895,1.636,1.636,0,0,0,1.637.714h0l0.044,0.053-0.022.021a6.239,6.239,0,0,1-4.977,1.819l-0.03.015a6.455,6.455,0,0,1-3.828-1.617,11.781,11.781,0,0,0,5.48,4.084,13.7,13.7,0,0,0,7.784.177h0.045a12.38,12.38,0,0,0,6.4-4.225,8.326,8.326,0,0,0,1.524-3.2,3.22,3.22,0,0,0,2.845-1.072l-0.015-.023a5.94,5.94,0,0,1-2.56-.142v-0.134c0-.007,0-0.007.008,0,1.388-.149,2.207-0.573,2.47-1.275a4.091,4.091,0,0,1-2.869.03A5.739,5.739,0,0,0,150.788,630.928Z" transform="translate(-117.969 -611.5)"/>
</svg>
