<svg xmlns="http://www.w3.org/2000/svg" xmlns:xlink="http://www.w3.org/1999/xlink" width="49.718" height="50" viewBox="0 0 49.718 50">
  <defs>
    <style>
      .cls-1 {
        fill: #fff;
        filter: url(#filter);
      }

      .cls-1, .cls-2 {
        fill-rule: evenodd;
      }

      .cls-2 {
        filter: url(#filter-2);
      }
    </style>
    <filter id="filter" x="294.188" y="611.5" width="49.718" height="50" filterUnits="userSpaceOnUse">
      <feFlood result="flood" flood-color="#c6c6c5"/>
      <feComposite result="composite" operator="in" in2="SourceGraphic"/>
      <feBlend result="blend" in2="SourceGraphic"/>
    </filter>
    <filter id="filter-2" x="307.75" y="625.125" width="22.594" height="22.75" filterUnits="userSpaceOnUse">
      <feFlood result="flood" flood-color="#232323"/>
      <feComposite result="composite" operator="in" in2="SourceGraphic"/>
      <feBlend result="blend" in2="SourceGraphic"/>
    </filter>
  </defs>
  <path id="Ellipse_1_copy_3" data-name="Ellipse 1 copy 3" class="cls-1" d="M319.057,611.5a25,25,0,1,1-24.855,25A24.928,24.928,0,0,1,319.057,611.5Z" transform="translate(-294.188 -611.5)"/>
  <path class="cls-2" d="M319.057,627.183c3.017,0,3.374.011,4.565,0.065a6.214,6.214,0,0,1,2.1.392,3.484,3.484,0,0,1,1.3.85,3.53,3.53,0,0,1,.846,1.307,6.33,6.33,0,0,1,.388,2.11c0.055,1.2.066,1.557,0.066,4.592s-0.011,3.394-.066,4.592a6.349,6.349,0,0,1-.388,2.111,3.522,3.522,0,0,1-.846,1.3,3.474,3.474,0,0,1-1.3.851,6.214,6.214,0,0,1-2.1.392c-1.191.054-1.548,0.066-4.565,0.066s-3.374-.012-4.565-0.066a6.214,6.214,0,0,1-2.1-.392,3.474,3.474,0,0,1-1.3-.851,3.51,3.51,0,0,1-.846-1.3,6.369,6.369,0,0,1-.389-2.111c-0.054-1.2-.065-1.557-0.065-4.592s0.011-3.393.065-4.592a6.349,6.349,0,0,1,.389-2.11,3.756,3.756,0,0,1,2.145-2.157,6.214,6.214,0,0,1,2.1-.392c1.191-.054,1.548-0.065,4.565-0.065m0-2.048c-3.069,0-3.453.012-4.658,0.068a8.247,8.247,0,0,0-2.743.528,5.795,5.795,0,0,0-3.3,3.324,8.391,8.391,0,0,0-.525,2.759c-0.055,1.211-.068,1.6-0.068,4.685s0.013,3.473.068,4.687a8.394,8.394,0,0,0,.525,2.757,5.795,5.795,0,0,0,3.3,3.324,8.247,8.247,0,0,0,2.743.528c1.2,0.055,1.589.068,4.658,0.068s3.453-.013,4.658-0.068a8.247,8.247,0,0,0,2.743-.528,5.795,5.795,0,0,0,3.3-3.324,8.394,8.394,0,0,0,.525-2.757c0.055-1.214.068-1.6,0.068-4.687s-0.013-3.474-.068-4.685a8.391,8.391,0,0,0-.525-2.759,5.795,5.795,0,0,0-3.3-3.324,8.247,8.247,0,0,0-2.743-.528c-1.2-.056-1.59-0.068-4.658-0.068h0Zm0,5.528a5.836,5.836,0,1,0,5.8,5.836A5.82,5.82,0,0,0,319.057,630.663Zm0,9.624a3.789,3.789,0,1,1,3.766-3.788A3.778,3.778,0,0,1,319.057,640.287Zm7.387-9.854a1.356,1.356,0,1,1-1.356-1.364A1.359,1.359,0,0,1,326.444,630.433Z" transform="translate(-294.188 -611.5)"/>
</svg>
