<?xml version="1.0" encoding="utf-8"?>
<!-- Generator: Adobe Illustrator 19.0.0, SVG Export Plug-In . SVG Version: 6.00 Build 0)  -->
<svg version="1.1" id="Layer_1" xmlns="http://www.w3.org/2000/svg" xmlns:xlink="http://www.w3.org/1999/xlink" x="0px" y="0px"
	 viewBox="0 0 42 60" style="enable-background:new 0 0 42 60;" xml:space="preserve">
<style type="text/css">
	.st0{fill:#FFFFFF;stroke:#FFFFFF;stroke-width:3;stroke-linecap:round;stroke-linejoin:round;stroke-miterlimit:10;}
	.st1{fill:none;stroke:#95D600;stroke-width:3;stroke-linecap:round;stroke-linejoin:round;stroke-miterlimit:10;}
</style>
<g id="XMLID_3595_">
	<path id="XMLID_3286_" class="st0" d="M21,58c0,0,19-16.8,19-37c0-10.5-8.5-19-19-19S2,10.5,2,21C2,41.2,21,58,21,58z"/>
	<g id="XMLID_3285_">
		<g id="XMLID_2352_">
			<path id="XMLID_2354_" class="st1" d="M9.2,23.9c0,1.7,0.7,2.6,2.7,2.6c2.6,0,6.3-1.5,6.3-2.6c0-1.3-3.7-2.6-6.3-2.6
				C9.9,21.2,9.2,22.1,9.2,23.9z"/>
		</g>
		<g id="XMLID_3282_">
			<path id="XMLID_3388_" class="st1" d="M32.8,23.9c0,1.7-0.7,2.6-2.7,2.6c-2.6,0-6.3-1.5-6.3-2.6c0-1.3,3.7-2.6,6.3-2.6
				C32.1,21.2,32.8,22.1,32.8,23.9z"/>
		</g>
		<g id="XMLID_3393_">
			<path id="XMLID_3394_" class="st1" d="M21,35.7c1.7,0,2.6-0.7,2.6-2.7c0-2.6-1.5-6.3-2.6-6.3c-1.3,0-2.6,3.7-2.6,6.3
				C18.4,34.9,19.3,35.7,21,35.7z"/>
		</g>
		<g id="XMLID_3390_">
			<path id="XMLID_3392_" class="st1" d="M21,12c1.7,0,2.6,0.7,2.6,2.7c0,2.6-1.5,6.3-2.6,6.3c-1.3,0-2.6-3.7-2.6-6.3
				C18.4,12.8,19.3,12,21,12z"/>
		</g>
	</g>
</g>
</svg>
