<?xml version="1.0" encoding="utf-8"?>
<!-- Generator: Adobe Illustrator 19.0.0, SVG Export Plug-In . SVG Version: 6.00 Build 0)  -->
<svg version="1.1" id="Layer_1" xmlns="http://www.w3.org/2000/svg" xmlns:xlink="http://www.w3.org/1999/xlink" x="0px" y="0px"
	 viewBox="0 0 42 60" style="enable-background:new 0 0 42 60;" xml:space="preserve">
<style type="text/css">
	.st0{fill:#FFFFFF;stroke:#FFFFFF;stroke-width:3;stroke-linecap:round;stroke-linejoin:round;stroke-miterlimit:10;}
	.st1{fill:none;stroke:#F38B00;stroke-width:3;stroke-linecap:round;stroke-linejoin:round;stroke-miterlimit:10;}
	.st2{fill:#F38B00;}
</style>
<g id="XMLID_64_">
	<g id="XMLID_3594_">
		<path id="XMLID_3284_" class="st0" d="M21,58c0,0,19-16.8,19-37c0-10.5-8.5-19-19-19S2,10.5,2,21C2,41.2,21,58,21,58z"/>
	</g>
	<g id="XMLID_1_">
		<polyline id="XMLID_3283_" class="st1" points="26.5,27 14.7,27 12.2,18.7 		"/>
		<polyline id="XMLID_3609_" class="st1" points="26.5,27 29,15.2 34.2,15.2 		"/>
		<line id="XMLID_2353_" class="st1" x1="12.2" y1="18.7" x2="24.5" y2="18.7"/>
		<g id="XMLID_3651_">
			<g id="XMLID_3621_">
				<path id="XMLID_18_" class="st2" d="M15.2,32.5c0.7,0,1.3,0.6,1.3,1.3s-0.6,1.3-1.3,1.3s-1.3-0.6-1.3-1.3S14.5,32.5,15.2,32.5
					 M15.2,29.5c-2.4,0-4.3,1.9-4.3,4.3s1.9,4.3,4.3,4.3s4.3-1.9,4.3-4.3S17.6,29.5,15.2,29.5L15.2,29.5z"/>
			</g>
			<g id="XMLID_3654_">
				<path id="XMLID_15_" class="st2" d="M26.2,32.5c0.7,0,1.3,0.6,1.3,1.3s-0.6,1.3-1.3,1.3s-1.3-0.6-1.3-1.3S25.4,32.5,26.2,32.5
					 M26.2,29.5c-2.4,0-4.3,1.9-4.3,4.3s1.9,4.3,4.3,4.3s4.3-1.9,4.3-4.3S28.6,29.5,26.2,29.5L26.2,29.5z"/>
			</g>
		</g>
	</g>
</g>
</svg>
